<svg width="93" height="34" viewBox="0 0 93 34" fill="none" xmlns="http://www.w3.org/2000/svg">
<path d="M29.4099 17.3C29.3049 18.4999 28.1048 18.4999 28.1048 18.4999H17.3049L18.2498 7.70005C18.3548 6.49991 19.5548 6.49991 19.5548 6.49991H30.3548L29.4099 17.3ZM35.0949 20.9L36.5647 4.10003C36.5647 4.10003 36.8796 0.5 33.2796 0.5H16.4797C16.4797 0.5 12.8796 0.5 12.5647 4.10003L11.0949 20.9C11.0949 20.9 10.7799 24.5 14.3799 24.5H31.1799C31.1799 24.5 34.7799 24.5 35.0949 20.9Z" fill="#C8102E"/>
<path d="M85.8103 17.3C85.7053 18.4999 84.5052 18.4999 84.5052 18.4999H73.7053L74.6502 7.70005C74.7552 6.49991 75.9551 6.49991 75.9551 6.49991H86.7552L85.8103 17.3ZM91.4952 20.9L92.965 4.10003C92.965 4.10003 93.28 0.5 89.68 0.5H72.88C72.88 0.5 69.28 0.5 68.9651 4.10003L67.4953 20.9C67.4953 20.9 67.1803 24.5 70.7803 24.5H87.5803C87.5803 24.5 91.1803 24.5 91.4952 20.9Z" fill="#C8102E"/>
<path d="M58.5548 6.4999L57.6099 17.3C57.5049 18.4999 56.305 18.4999 56.305 18.4999H45.5049L46.4498 7.70005C46.5548 6.4999 47.7549 6.4999 47.7549 6.4999H58.5548ZM61.4798 0.5H44.6798C44.6798 0.5 41.0798 0.5 40.7649 4.10002L39.2951 20.9C39.2951 20.9 38.9801 24.5 42.5801 24.5H53.98L53.8225 26.3C53.7176 27.5 52.5176 27.5 52.5176 27.5H44.7178L44.2978 32.2999C44.2978 32.2999 44.1928 33.4999 45.3927 33.4999H55.5927C55.5927 33.4999 59.1927 33.4999 59.5077 29.9001L59.9857 24.4363C61.0247 24.2579 63.0615 23.5689 63.295 20.9L64.7649 4.10002C64.7649 4.10002 65.0798 0.5 61.4798 0.5Z" fill="#C8102E"/>
<path d="M15.3178 27.5H6.31774L8.6799 0.500488H3.87994C3.87994 0.500488 2.68 0.500488 2.57502 1.70043L0.31784 27.5L0.0389041 30.6883L0.0336589 30.7482C0.0336589 30.7482 -0.207075 33.4999 2.54459 33.4999H13.5929C13.5929 33.4999 14.7929 33.4999 14.8978 32.3L15.3178 27.5Z" fill="#C8102E"/>
</svg>
